<svg xmlns="http://www.w3.org/2000/svg" width="40" height="40" viewBox="0 0 40 40">
  <g id="Group_12" data-name="Group 12" transform="translate(-221 -5981)">
    <circle id="Ellipse_5" data-name="Ellipse 5" cx="20" cy="20" r="20" transform="translate(221 5981)" fill="#6e6e6e"/>
    <g id="youtube" transform="translate(229 5989.27)">
      <path id="Path_7" data-name="Path 7" d="M22.54,6.42a2.78,2.78,0,0,0-1.94-2C18.88,4,12,4,12,4s-6.88,0-8.6.46a2.78,2.78,0,0,0-1.94,2A29,29,0,0,0,1,11.75a29,29,0,0,0,.46,5.33A2.78,2.78,0,0,0,3.4,19c1.72.46,8.6.46,8.6.46s6.88,0,8.6-.46a2.78,2.78,0,0,0,1.94-2A29,29,0,0,0,23,11.75a29,29,0,0,0-.46-5.33Z" fill="none" stroke="#f3f2c2" stroke-linecap="round" stroke-linejoin="round" stroke-width="2"/>
      <path id="Path_8" data-name="Path 8" d="M9.75,15.02l5.75-3.27L9.75,8.48Z" fill="none" stroke="#f3f2c2" stroke-linecap="round" stroke-linejoin="round" stroke-width="2"/>
    </g>
  </g>
</svg>
